<svg xmlns="http://www.w3.org/2000/svg" width="100" height="128" fill="none" viewBox="0 0 100 128">
  <path fill="#3869EB" d="M17.652 11.535C31.072-.252 51.11-3.064 67.61 3.367c23.635 8.478 37.304 36.539 30.749 60.505-2.874 9.967-8.458 18.818-13.813 27.606-4.88-8.395-11.766-15.364-20.265-20.1 6.886-7.216 11.538-17.99 6.803-27.626-5.666-15.22-27.999-19.686-38.565-7.03-9.926 9.76-7.052 25.724 2.109 34.925-8.478 4.115-14.95 11.125-18.92 19.624C6.278 79.547-1.27 65.113.178 49.604c-.786-14.64 6.72-28.536 17.473-38.069Z"/>
  <path fill="#3869EB" d="M34.132 114.286c3.082-14.144 5.046-28.495 7.92-42.68 4.88.02 9.74.02 14.62.02 2.998 14.082 5.149 28.33 8.002 42.453-4.962 4.529-8.912 11.353-15.26 13.648-6.245-2.419-10.236-9.078-15.282-13.441Z"/>
</svg>
